# xmcd
#
# Track frame offsets:
#	150
#	15062
#	28627
#	50255
#	67375
#	81305
#	97555
#	120717
#	136512
#	159092
#	183205
#
# Disc length: 2663 seconds
#
# Revision: 1
# Processed by: cddbd v1.5.2PL0 Copyright (c) Steve Scherf et al.
# Submitted via: EasyCDDAExtractor 7.0.3.1
#
DISCID=740a650b
DTITLE=Sundown - Go For It
DYEAR=1900
DGENRE=Country
TTITLE0=Go For It
TTITLE1=Love At First Sight
TTITLE2=Wasted Love
TTITLE3=Attention
TTITLE4=Who Said It's Over
TTITLE5=I Don't Mind
TTITLE6=Til the Pain Goes Away
TTITLE7=A Love About To Fall
TTITLE8=I Just Can't Convince My Heart
TTITLE9=The Best That I Can
TTITLE10=Yesterday's News
EXTD=
EXTT0=
EXTT1=
EXTT2=
EXTT3=
EXTT4=
EXTT5=
EXTT6=
EXTT7=
EXTT8=
EXTT9=
EXTT10=
PLAYORDER=
